<svg xmlns="http://www.w3.org/2000/svg">
<symbol id="icon-minus" viewBox="0 0 32 32">
<path d="M6.667 14.667h18.667v2.667h-18.667z"></path>
</symbol>
<symbol id="icon-plus" viewBox="0 0 32 32">
<path d="M32 13.714h-13.714v-13.714h-4.571v13.714h-13.714v4.571h13.714v13.714h4.571v-13.714h13.714z"></path>
</symbol>
<symbol id="icon-close-btn" viewBox="0 0 32 32">
<path d="M26.397 0l-11.315 11.312-11.312-11.312-3.771 3.771 11.312 11.312-11.312 11.312 3.771 3.771 11.312-11.312 11.315 11.312 3.771-3.771-11.312-11.312 11.312-11.312z"></path>
</symbol>
<symbol id="icon-star" viewBox="0 0 32 32">
<path d="M7.226 19.72l-2.384 10.322c-0.027 0.111-0.043 0.238-0.043 0.369 0 0.882 0.715 1.597 1.597 1.597 0.333 0 0.642-0.102 0.898-0.276l-0.006 0.004 8.712-5.808 8.712 5.808c0.249 0.168 0.556 0.268 0.886 0.268 0.885 0 1.602-0.717 1.602-1.602 0-0.156-0.022-0.306-0.064-0.449l0.003 0.011-2.926-10.24 7.258-6.531c0.326-0.294 0.529-0.718 0.529-1.189 0-0.839-0.646-1.527-1.468-1.595l-0.006-0-9.122-0.726-3.947-8.736c-0.255-0.563-0.811-0.947-1.458-0.947s-1.203 0.384-1.454 0.937l-0.004 0.010-3.947 8.734-9.122 0.725c-0.828 0.068-1.474 0.756-1.474 1.595 0 0.449 0.185 0.855 0.483 1.145l0 0zM11.79 12.797c0.594-0.049 1.092-0.415 1.327-0.928l0.004-0.010 2.878-6.368 2.878 6.368c0.239 0.522 0.737 0.889 1.325 0.937l0.006 0 6.355 0.504-5.234 4.71c-0.454 0.411-0.635 1.040-0.469 1.629l2.005 7.016-5.978-3.984c-0.249-0.169-0.556-0.27-0.887-0.27s-0.638 0.101-0.893 0.274l0.006-0.004-6.246 4.165 1.68-7.274c0.026-0.108 0.041-0.232 0.041-0.359 0-0.449-0.185-0.854-0.482-1.145l-0-0-4.861-4.741z"></path>
</symbol>
<symbol id="icon-big-arrow-left" viewBox="0 0 38 32">
<path d="M36.828 13.414h-29.172l10.586-10.586-2.828-2.828-15.414 15.414 15.414 15.414 2.828-2.828-10.586-10.586h29.172z"></path>
</symbol>
<symbol id="icon-up" viewBox="0 0 48 32">
<path d="M0 22.828l5.656 5.656 17.172-17.172 17.172 17.172 5.656-5.656-22.828-22.828z"></path>
</symbol>
<symbol id="icon-down" viewBox="0 0 48 32">
<path d="M40 0l-17.172 17.172-17.172-17.172-5.656 5.656 22.828 22.828 22.828-22.828z"></path>
</symbol>
<symbol id="icon-left" viewBox="0 0 21 32">
<path d="M15.219 0l-15.219 15.219 15.219 15.219 3.771-3.771-11.448-11.448 11.448-11.448z"></path>
</symbol>
<symbol id="icon-right" viewBox="0 0 21 32">
<path d="M3.771 30.437l15.219-15.219-15.219-15.219-3.771 3.771 11.448 11.448-11.448 11.448z"></path>
</symbol>
<symbol id="icon-arrow-top" viewBox="0 0 32 32">
<path d="M13.045 8.75v21.911h4.571v-21.911l9.813 9.813 3.232-3.232-15.33-15.33-15.33 15.33 3.232 3.232z"></path>
</symbol>
<symbol id="icon-arrow-bottom" viewBox="0 0 32 32">
<path d="M30.661 15.33l-3.232-3.232-9.813 9.813v-21.911h-4.571v21.911l-9.813-9.813-3.232 3.232 15.33 15.33z"></path>
</symbol>
<symbol id="icon-arrow-left" viewBox="0 0 32 32">
<path d="M18.562 27.429l-9.813-9.813h21.911v-4.571h-21.911l9.813-9.813-3.232-3.232-15.33 15.33 15.33 15.33z"></path>
</symbol>
<symbol id="icon-arrow-right" viewBox="0 0 32 32">
<path d="M12.098 27.429l3.232 3.232 15.33-15.33-15.33-15.33-3.232 3.232 9.813 9.813h-21.911v4.571h21.911z"></path>
</symbol>
<symbol id="icon-icon-m" viewBox="0 0 32 32">
<path stroke-linejoin="miter" stroke-linecap="butt" stroke-miterlimit="4" stroke-width="1.6" d="M26.685 0.829l3.299-0.022q0.096 14.294 0.016 28.589l-3.414 0.042-0.006-17.904-0.016-4.902c-1.907 3.616-4.067 7.098-6.134 10.627-1.306 2.24-2.522 4.806-4.138 6.819-0.21 0.077-0.453 0.122-0.706 0.122-0.179 0-0.352-0.022-0.518-0.064l0.015 0.003c-0.192-0.051-0.36-0.125-0.514-0.219l0.008 0.005c-0.874-0.691-9.078-15.11-10.39-17.299 0.339 2.592 0.128 5.424 0.128 8.038l-0.013 14.704-3.491 0.013c0.109-9.514-0.064-19.034 0.029-28.547l3.802 0.016c1.69 3.021 3.504 5.984 5.258 8.97 1.862 3.174 3.677 6.387 5.654 9.488 2.016-3.677 4.266-7.238 6.432-10.832 1.533-2.544 2.982-5.222 4.701-7.648z"></path>
</symbol>
<symbol id="icon-burger-btn" viewBox="0 0 43 32">
<path d="M0 0h42.667v5.333h-42.667zM0 13.333h42.667v5.333h-42.667zM0 26.667h42.667v5.333h-42.667z"></path>
</symbol>
<symbol id="icon-logo-header" viewBox="0 0 144 32">
<path d="M14.457 0.071c0.48-0.051 1.037-0.081 1.6-0.081 8.801 0 15.936 7.135 15.936 15.936 0 8.323-6.38 15.155-14.516 15.874l-0.061 0.004c-0.407 0.037-0.881 0.058-1.36 0.058-8.801 0-15.936-7.135-15.936-15.936 0-8.238 6.25-15.015 14.267-15.85l0.069-0.006zM17.636 30.117c7.207-0.788 12.764-6.841 12.764-14.192 0-7.882-6.39-14.272-14.272-14.272-0.668 0-1.326 0.046-1.97 0.135l0.075-0.008c-7.025 0.968-12.377 6.932-12.377 14.146 0 7.882 6.39 14.272 14.272 14.272 0.531 0 1.055-0.029 1.571-0.086l-0.064 0.006z"></path>
<path d="M22.174 7.644l1.835-0.012q0.053 7.941 0.009 15.883l-1.897 0.025-0.004-9.948-0.009-2.724c-1.060 2.009-2.261 3.943-3.408 5.906-0.727 1.244-1.401 2.67-2.3 3.787-0.118 0.043-0.254 0.068-0.396 0.068-0.097 0-0.192-0.012-0.283-0.034l0.008 0.002c-0.107-0.029-0.2-0.069-0.286-0.122l0.005 0.003c-0.485-0.388-5.044-8.396-5.772-9.611 0.187 1.44 0.071 3.012 0.069 4.466l-0.005 8.169-1.94 0.005c0.059-5.285-0.036-10.574 0.016-15.861l2.112 0.011c0.939 1.68 1.947 3.324 2.921 4.983 1.035 1.764 2.043 3.548 3.141 5.273 1.12-2.044 2.37-4.023 3.573-6.020 0.85-1.413 1.655-2.901 2.61-4.247zM119.294 11.417c0.373-0.025 0.757-0.036 1.132-0.028 1.399 0.025 2.827 0.773 3.785 1.764 1.191 1.236 1.746 2.958 1.707 4.658-0.041 1.73-0.688 3.372-1.961 4.56-1.017 0.966-2.396 1.559-3.913 1.559-0.073 0-0.146-0.001-0.218-0.004l0.010 0c-1.769-0.068-2.942-0.812-4.13-2.080-0.046 0.725-0.032 1.458-0.039 2.187q0.011 2.165-0.007 4.331c-0.672 0.068-1.351 0.060-2.023-0.018 0.11-2.236 0.012-4.524 0.014-6.766 0-3.335 0.053-6.677-0.023-10.009l2.004-0.009c-0.041 0.743-0.030 1.495-0.041 2.24 1.084-1.355 1.989-2.007 3.703-2.384zM120.162 22.137c1.244-0.235 2.21-0.743 2.94-1.817 0.715-1.070 0.971-2.382 0.711-3.641-0.224-1.124-0.889-2.183-1.867-2.796-0.77-0.484-1.6-0.617-2.489-0.592-1.236 0.235-2.236 0.674-2.976 1.749-0.525 0.787-0.837 1.755-0.837 2.795 0 0.306 0.027 0.606 0.079 0.898l-0.005-0.031c0.236 1.185 0.93 2.176 1.886 2.799l0.017 0.010c0.789 0.498 1.623 0.64 2.54 0.624zM81.922 6.395c0.327 0.334 0.427 1.22 0.622 1.694-2.101 0.882-5.148 0.7-6.839 2.315-1.010 0.965-1.252 2.3-1.273 3.632 0.905-1.116 1.895-2.021 3.378-2.27 1.499-0.249 3.086 0.039 4.316 0.955 1.319 0.983 2.055 2.407 2.276 4.021 0.045 0.292 0.071 0.63 0.071 0.973 0 1.558-0.534 2.991-1.43 4.126l0.011-0.014c-0.823 0.914-1.783 1.589-2.99 1.884-1.529 0.377-3.275 0.181-4.622-0.654-1.536-0.955-2.421-2.53-2.804-4.261-0.574-2.59-0.462-6.459 1.031-8.757 1.316-2.027 3.303-2.428 5.511-2.955 0.917-0.217 1.822-0.485 2.741-0.688zM78.428 22.148c1.301-0.192 2.268-0.505 3.077-1.623 0.795-1.095 1.049-2.48 0.804-3.797-0.197-1.063-0.757-2.036-1.671-2.638-0.53-0.354-1.175-0.577-1.869-0.611l-0.009-0c-1.266 0.142-2.308 0.404-3.15 1.447-0.624 0.789-1 1.799-1 2.896 0 0.23 0.017 0.456 0.049 0.677l-0.003-0.025c0.16 1.132 0.779 2.224 1.71 2.9 0.629 0.457 1.305 0.658 2.062 0.775zM53.445 7.2c0.74-0.073 1.509-0.037 2.254-0.043-0.101 5.447 0.018 10.91-0.012 16.361l-1.963-0.020 0.004-9.636c-0.005-1.106-0.028-2.212 0.039-3.314-1.808 3.339-3.438 6.823-5.419 10.062l-1.275-0.007c-1.95-3.198-3.573-6.644-5.378-9.929 0.071 1.506 0.023 3.036 0.025 4.546l0.004 8.297c-0.654-0.018-1.305 0.027-1.961-0.004v-9.927c0.004-2.133-0.039-4.281 0.078-6.412h2.181c0.622 1.067 1.148 2.204 1.712 3.301 1.308 2.542 2.603 5.111 4.012 7.596 2.075-3.515 3.716-7.301 5.698-10.873zM63.536 11.42q0.45-0.023 0.898-0.036c1.572-0.025 3.136 0.404 4.267 1.543 1.516 1.522 1.668 3.44 1.668 5.468-3.271 0.041-6.542-0.004-9.813 0.011 0.101 0.54 0.203 1.056 0.459 1.55 0.512 0.985 1.399 1.721 2.46 2.044 1.271 0.384 2.549 0.16 3.692-0.471 0.384-0.261 0.734-0.567 1.092-0.862 0.514 0.293 1.033 0.539 1.575 0.773-0.807 1.088-1.847 1.881-3.163 2.24-1.685 0.462-3.74 0.283-5.257-0.612-1.313-0.783-2.271-2.045-2.639-3.54l-0.008-0.039c-0.448-1.808-0.197-3.783 0.782-5.372 0.946-1.532 2.272-2.29 3.988-2.699zM60.576 16.869q2.428-0.018 4.859-0.014l3.026 0.002c-0.295-1.243-0.59-2.395-1.746-3.122-0.846-0.532-1.872-0.613-2.844-0.532-1.052 0.244-1.938 0.722-2.539 1.648-0.405 0.628-0.587 1.301-0.756 2.018zM104.206 11.417q0.439-0.021 0.88-0.028c1.568-0.018 3.132 0.446 4.251 1.589 1.472 1.506 1.607 3.426 1.6 5.412-3.255 0.048-6.519 0.009-9.778 0.018 0.044 0.594 0.149 1.104 0.427 1.639 0.514 0.988 1.364 1.644 2.427 1.956 1.422 0.418 2.716 0.108 3.972-0.588 0.308-0.212 0.58-0.469 0.859-0.716 0.516 0.277 1.040 0.503 1.582 0.718-0.85 1.12-1.909 1.931-3.285 2.279-1.71 0.434-3.673 0.267-5.2-0.652-1.324-0.823-2.281-2.128-2.632-3.664l-0.008-0.039c-0.407-1.755-0.124-3.771 0.857-5.292 0.98-1.52 2.322-2.256 4.050-2.629zM101.143 16.864c1.55-0.004 3.102-0.025 4.652-0.009h3.285c-0.341-1.28-0.699-2.524-1.934-3.227-0.764-0.436-1.698-0.508-2.562-0.421-1.026 0.169-1.892 0.555-2.528 1.412-0.505 0.679-0.72 1.438-0.914 2.245zM138.018 11.591c1.982-0.094 3.995-0.027 5.982-0.021-0.101 3.972-0.011 7.968-0.012 11.943l-2.044-0.023v-4.076c-0.978-0.007-2.261-0.197-3.193 0.023-0.29 0.071-0.341 0.217-0.505 0.443-0.69 1.223-1.458 2.404-2.149 3.627q-1.157 0.027-2.316 0.005c0.756-1.419 1.781-3.225 2.782-4.453-0.169-0.081-0.284-0.142-0.398-0.204l0.046 0.023c-0.873-0.482-1.541-1.257-1.796-2.229-0.082-0.306-0.129-0.658-0.129-1.020 0-0.754 0.204-1.459 0.559-2.066l-0.010 0.019c0.731-1.214 1.876-1.68 3.184-1.989zM140.112 17.698c0.604-0.004 1.22 0.014 1.82-0.028q-0.011-2.121 0.012-4.236c-1.198-0.005-2.414-0.036-3.609 0.028-0.756 0.236-1.346 0.492-1.753 1.22-0.163 0.291-0.259 0.64-0.259 1.010 0 0.228 0.036 0.447 0.103 0.653l-0.004-0.015c0.176 0.508 0.583 0.866 1.065 1.083 0.811 0.366 1.755 0.295 2.624 0.286zM88.551 11.698c2.587-0.092 5.196-0.032 7.787-0.036l-0.012 11.849c-0.645-0.009-1.292-0.036-1.932 0.052l-0.009-10.037-1.099 0.044c-0.98-0.050-1.98 0.016-2.964 0.039-0.027 2.388-0.036 7.34-1.708 9.108-0.836 0.88-1.778 0.971-2.916 0.98-0.011-0.622-0.043-1.237-0.089-1.86 0.299-0.027 0.613-0.046 0.903-0.121 1.801-0.453 1.831-6.404 1.877-7.904 0.018-0.587-0.112-1.636 0.16-2.112zM130.517 11.611l0.267-0.016c0.030 0.044 0.075 0.080 0.094 0.13 0.089 0.233-0.002 10.585 0 11.781l-1.737 0.012-0.128-0.027c-0.277-0.501 0-10.364-0.085-11.858 0.53 0.007 1.060-0.011 1.589-0.023zM128.889 7.143l1.998-0.007c-0.021 0.709-0.005 1.417 0.004 2.126l-2.053 0.016q0.043-1.067 0.053-2.135z"></path>
</symbol>
  <symbol id="icon-logo-footer" viewBox="0 0 144 32">
<path d="M14.446 0.070c8.764-0.818 16.528 5.629 17.336 14.392s-5.645 16.522-14.41 17.321c-8.752 0.799-16.496-5.644-17.303-14.395s5.626-16.502 14.377-17.319zM17.623 30.098c7.823-0.939 13.402-8.045 12.458-15.867-0.944-7.823-8.053-13.398-15.875-12.448-7.816 0.947-13.384 8.049-12.441 15.864 0.945 7.816 8.042 13.389 15.859 12.451z"></path>
<path d="M22.158 7.639l1.833-0.013q0.053 7.937 0.008 15.872l-1.895 0.023-0.003-9.94-0.009-2.723c-1.059 2.009-2.261 3.941-3.406 5.901-0.726 1.243-1.4 2.668-2.299 3.786-0.214 0.078-0.446 0.084-0.669 0.033-0.073-0.016-0.226-0.074-0.281-0.118-0.485-0.387-5.041-8.39-5.769-9.604 0.187 1.439 0.070 3.009 0.069 4.462l-0.006 8.163-1.938 0.007c0.060-5.282-0.035-10.568 0.016-15.85l2.11 0.011c0.939 1.678 1.946 3.321 2.919 4.979 1.034 1.762 2.041 3.546 3.14 5.268 1.117-2.041 2.367-4.020 3.569-6.014 0.852-1.412 1.656-2.9 2.61-4.245zM119.207 11.409c0.273-0.019 0.592-0.030 0.914-0.030 0.077 0 0.154 0.001 0.23 0.002l-0.012-0c1.398 0.025 2.825 0.772 3.781 1.763 1.192 1.234 1.746 2.955 1.706 4.654-0.040 1.728-0.688 3.37-1.96 4.556-1.128 1.050-2.572 1.613-4.117 1.554-1.769-0.066-2.941-0.811-4.128-2.077-0.046 0.725-0.032 1.458-0.039 2.184q0.012 2.164-0.006 4.329c-0.277 0.029-0.598 0.045-0.924 0.045-0.387 0-0.769-0.023-1.144-0.069l0.045 0.004c0.11-2.233 0.013-4.521 0.014-6.761 0-3.331 0.053-6.672-0.022-10.002l2.001-0.008c-0.039 0.743-0.029 1.494-0.040 2.239 1.084-1.353 1.989-2.006 3.7-2.383zM120.074 22.119c1.244-0.233 2.208-0.741 2.938-1.815 0.507-0.749 0.81-1.673 0.81-2.668 0-0.343-0.036-0.678-0.105-1.001l0.006 0.031c-0.223-1.122-0.887-2.183-1.864-2.795-0.769-0.483-1.601-0.615-2.489-0.59-1.233 0.233-2.233 0.673-2.972 1.748-0.697 1.012-0.997 2.454-0.761 3.658 0.234 1.185 0.927 2.176 1.882 2.798l0.017 0.010c0.79 0.496 1.623 0.64 2.539 0.624zM81.862 6.389c0.327 0.336 0.428 1.22 0.622 1.693-2.1 0.882-5.145 0.7-6.834 2.314-1.010 0.965-1.251 2.299-1.272 3.629 0.904-1.116 1.894-2.021 3.376-2.268 1.497-0.25 3.084 0.039 4.311 0.953 1.319 0.982 2.053 2.405 2.274 4.018 0.253 1.853-0.209 3.601-1.346 5.081-0.823 0.914-1.782 1.59-2.988 1.885-1.528 0.375-3.272 0.181-4.618-0.655-1.536-0.953-2.42-2.527-2.803-4.259-0.572-2.587-0.46-6.454 1.031-8.751 1.315-2.026 3.301-2.427 5.507-2.952 0.917-0.217 1.82-0.486 2.739-0.688zM78.371 22.131c1.3-0.193 2.267-0.504 3.076-1.622 0.793-1.095 1.049-2.478 0.803-3.794-0.199-1.063-0.758-2.035-1.671-2.636-0.529-0.355-1.173-0.579-1.867-0.613l-0.009-0c-1.266 0.142-2.307 0.404-3.149 1.448-0.79 0.98-1.128 2.303-0.953 3.545 0.159 1.132 0.778 2.223 1.708 2.898 0.63 0.456 1.305 0.656 2.061 0.774zM53.407 7.195c0.739-0.074 1.509-0.039 2.252-0.044-0.101 5.444 0.020 10.904-0.012 16.349l-1.961-0.020 0.003-9.629c-0.005-1.104-0.029-2.209 0.039-3.311-1.807 3.337-3.436 6.82-5.415 10.055l-1.273-0.007c-1.949-3.195-3.572-6.639-5.374-9.922 0.071 1.505 0.023 3.035 0.024 4.543l0.004 8.292c-0.653-0.017-1.304 0.025-1.959-0.005l0.001-9.92c0.001-2.132-0.041-4.278 0.076-6.407l2.181 0.001c0.62 1.063 1.147 2.202 1.71 3.297 1.306 2.54 2.6 5.108 4.010 7.593 2.072-3.513 3.712-7.297 5.693-10.865zM63.489 11.413q0.449-0.024 0.898-0.034c1.569-0.026 3.133 0.402 4.264 1.539 1.514 1.522 1.665 3.439 1.665 5.465-3.267 0.042-6.538-0.003-9.806 0.012 0.101 0.539 0.202 1.055 0.458 1.548 0.514 0.977 1.382 1.709 2.429 2.035l0.029 0.008c1.27 0.385 2.548 0.159 3.69-0.47 0.383-0.261 0.734-0.566 1.091-0.861 0.513 0.293 1.032 0.537 1.574 0.772-0.806 1.087-1.846 1.88-3.161 2.24-1.684 0.461-3.736 0.281-5.253-0.612-1.312-0.783-2.269-2.044-2.636-3.538l-0.008-0.039c-0.448-1.806-0.198-3.781 0.782-5.368 0.944-1.531 2.269-2.288 3.984-2.697zM60.531 16.856q2.428-0.020 4.855-0.013l3.024 0.001c-0.295-1.241-0.59-2.392-1.746-3.119-0.845-0.532-1.87-0.613-2.843-0.532-1.050 0.243-1.936 0.721-2.535 1.646-0.406 0.627-0.586 1.301-0.756 2.016zM104.13 11.409q0.44-0.022 0.881-0.029c1.565-0.017 3.129 0.447 4.247 1.59 1.47 1.503 1.605 3.422 1.599 5.406-3.254 0.049-6.514 0.010-9.769 0.018 0.043 0.594 0.147 1.105 0.425 1.639 0.513 0.988 1.363 1.642 2.425 1.953 1.42 0.418 2.713 0.11 3.968-0.588 0.307-0.211 0.579-0.469 0.858-0.716 0.516 0.278 1.039 0.503 1.582 0.718-0.851 1.119-1.91 1.93-3.284 2.278-1.709 0.434-3.671 0.268-5.196-0.653-1.354-0.818-2.282-2.165-2.638-3.7-0.406-1.753-0.123-3.768 0.857-5.288s2.319-2.254 4.046-2.628zM101.069 16.854c1.55-0.005 3.1-0.026 4.649-0.009l3.283-0.002c-0.34-1.276-0.697-2.52-1.932-3.222-0.765-0.435-1.697-0.509-2.56-0.422-1.025 0.17-1.891 0.555-2.527 1.411-0.504 0.679-0.718 1.437-0.913 2.244zM137.917 11.581c1.982-0.093 3.993-0.026 5.977-0.020-0.101 3.968-0.011 7.963-0.012 11.934l-2.041-0.022-0.002-4.077c-0.975-0.006-2.259-0.197-3.189 0.025-0.291 0.069-0.343 0.215-0.505 0.441-0.689 1.223-1.455 2.402-2.147 3.625q-1.159 0.026-2.316 0.007c0.756-1.418 1.781-3.223 2.781-4.451-0.166-0.081-0.282-0.141-0.396-0.205l0.043 0.022c-0.873-0.481-1.539-1.255-1.795-2.226-0.266-1.012-0.121-2.168 0.421-3.066 0.73-1.212 1.873-1.678 3.181-1.987zM140.010 17.686c0.603-0.005 1.218 0.014 1.819-0.029q-0.012-2.117 0.011-4.234c-1.198-0.004-2.411-0.037-3.607 0.029-0.754 0.236-1.344 0.491-1.751 1.219-0.27 0.483-0.342 1.121-0.16 1.646 0.176 0.509 0.584 0.865 1.065 1.083 0.81 0.366 1.754 0.295 2.623 0.287zM88.485 11.69c2.585-0.093 5.193-0.033 7.781-0.037l-0.012 11.841c-0.645-0.009-1.292-0.037-1.931 0.052l-0.010-10.030-1.097 0.044c-0.98-0.048-1.98 0.016-2.962 0.039-0.027 2.387-0.037 7.335-1.708 9.101-0.833 0.88-1.776 0.97-2.914 0.98-0.012-0.679-0.043-1.326-0.094-1.967l0.007 0.109c0.297-0.027 0.613-0.048 0.902-0.121 1.799-0.454 1.831-6.4 1.876-7.899 0.018-0.585-0.112-1.635 0.161-2.11zM130.422 11.603l0.264-0.016c0.032 0.043 0.077 0.078 0.097 0.129 0.088 0.232-0.003 10.576-0.002 11.772l-1.734 0.012-0.127-0.025c-0.278-0.502 0.001-10.358-0.086-11.848 0.53 0.007 1.059-0.011 1.588-0.024zM128.797 7.138l1.994-0.007c-0.021 0.708-0.005 1.417 0.005 2.124l-2.053 0.016q0.045-1.066 0.054-2.134z"></path>
</symbol>
<symbol id="icon-instagram" viewBox="0 0 32 32">
<path d="M15.999 6.16c3.205 0 3.585 0.016 4.845 0.072 1.173 0.052 1.804 0.248 2.227 0.413 0.557 0.215 0.96 0.477 1.377 0.893 0.423 0.423 0.68 0.821 0.9 1.379 0.164 0.423 0.36 1.060 0.413 2.227 0.056 1.267 0.069 1.645 0.069 4.847s-0.013 3.587-0.071 4.847c-0.051 1.173-0.248 1.804-0.412 2.227-0.203 0.54-0.508 1-0.894 1.377l-0.001 0.001c-0.423 0.423-0.821 0.68-1.379 0.9-0.421 0.164-1.059 0.36-2.227 0.413-1.265 0.056-1.644 0.069-4.845 0.069s-3.587-0.013-4.847-0.071c-1.173-0.051-1.805-0.248-2.227-0.412-0.54-0.203-1.001-0.508-1.378-0.895l-0.001-0.001c-0.389-0.377-0.695-0.837-0.891-1.352l-0.009-0.026c-0.164-0.421-0.36-1.059-0.413-2.227-0.055-1.265-0.069-1.644-0.069-4.847 0-3.2 0.013-3.584 0.071-4.845 0.052-1.173 0.248-1.805 0.413-2.227 0.215-0.559 0.477-0.96 0.893-1.379 0.378-0.389 0.838-0.696 1.353-0.891l0.026-0.009c0.423-0.164 1.060-0.36 2.227-0.413 1.261-0.055 1.64-0.069 4.847-0.069zM15.997 4.001c-3.257 0-3.665 0.015-4.945 0.071-1.275 0.057-2.151 0.263-2.911 0.559-0.833 0.318-1.542 0.79-2.126 1.386l-0.001 0.001c-0.596 0.584-1.068 1.292-1.373 2.084l-0.014 0.040c-0.296 0.764-0.503 1.635-0.56 2.909-0.052 1.284-0.068 1.692-0.068 4.949 0 3.259 0.013 3.665 0.071 4.945 0.056 1.275 0.263 2.152 0.557 2.911 0.318 0.833 0.79 1.542 1.386 2.126l0.001 0.001c0.584 0.595 1.293 1.065 2.084 1.369l0.040 0.014c0.764 0.296 1.636 0.503 2.911 0.559 1.28 0.056 1.687 0.071 4.944 0.071s3.667-0.013 4.947-0.071c1.273-0.056 2.151-0.263 2.909-0.559 0.831-0.318 1.539-0.788 2.122-1.382l0.001-0.001c0.665-0.667 1.079-1.335 1.383-2.123 0.296-0.764 0.501-1.635 0.559-2.911 0.056-1.28 0.071-1.687 0.071-4.944s-0.015-3.665-0.071-4.945c-0.057-1.275-0.263-2.151-0.559-2.911-0.305-0.838-0.774-1.551-1.372-2.132l-0.001-0.001c-0.584-0.594-1.292-1.064-2.082-1.368l-0.040-0.014c-0.764-0.296-1.635-0.503-2.911-0.559-1.284-0.061-1.691-0.076-4.948-0.076z"></path>
<path d="M15.999 9.836c-3.337 0.088-6.008 2.814-6.008 6.163s2.671 6.076 6 6.163l0.008 0c3.365-0.051 6.073-2.791 6.073-6.163s-2.708-6.112-6.069-6.163l-0.005-0zM15.999 19.996c-2.208 0-3.997-1.79-3.997-3.997s1.79-3.997 3.997-3.997v0c2.208 0 3.998 1.79 3.998 3.998s-1.79 3.998-3.998 3.998v0zM23.843 9.592c0.001 0.018 0.001 0.040 0.001 0.062 0 0.795-0.645 1.44-1.44 1.44s-1.44-0.645-1.44-1.44c0-0.022 0-0.043 0.001-0.065l-0 0.003c0.034-0.768 0.665-1.378 1.439-1.378s1.405 0.61 1.439 1.375l0 0.003z"></path>
</symbol>
<symbol id="icon-facebook" viewBox="0 0 32 32">
<path d="M29.333 16.405c0-7.408-5.969-13.413-13.333-13.413s-13.333 6.004-13.333 13.412c0 6.696 4.876 12.245 11.251 13.253v-9.375h-3.387v-3.879h3.387v-2.955c0-3.363 1.989-5.22 5.036-5.22 1.459 0 2.984 0.263 2.984 0.263v3.301h-1.68c-1.657 0-2.173 1.033-2.173 2.095v2.516h3.697l-0.591 3.879h-3.107v9.373c6.373-1.007 11.249-6.556 11.249-13.252z"></path>
</symbol>
<symbol id="icon-youtube" viewBox="0 0 32 32">
<path d="M28.791 9.604c-0.315-1.149-1.201-2.037-2.326-2.349l-0.023-0.006c-2.088-0.573-10.441-0.583-10.441-0.583s-8.352-0.009-10.441 0.539c-1.146 0.334-2.029 1.222-2.349 2.347l-0.006 0.024c-0.551 2.088-0.556 6.419-0.556 6.419s-0.005 4.352 0.541 6.419c0.307 1.143 1.207 2.045 2.351 2.353 2.109 0.573 10.44 0.583 10.44 0.583s8.353 0.009 10.44-0.537c1.148-0.32 2.034-1.204 2.352-2.327l0.006-0.024c0.552-2.087 0.556-6.416 0.556-6.416s0.027-4.353-0.543-6.441zM13.328 20.007l0.007-8 6.943 4.007z"></path>
</symbol>
</svg>
